# Blender v2.74 (sub 0) OBJ File: ''
# www.blender.org
mtllib banana_leaves.mtl
o palm_tree
v -2.142831 9.053132 0.668887
v -1.019323 8.637774 0.085520
v -1.718246 7.817814 -0.564050
v -2.693426 8.155088 -0.074699
v -5.048384 8.829830 2.170265
v -3.146294 9.150282 1.188804
v -3.742627 8.256197 0.473308
v -5.260443 7.960907 1.261395
v -1.905518 8.134173 1.442058
v -1.948378 8.409457 1.356771
v -2.929190 8.504269 1.869346
v -2.886304 8.262775 2.010970
v -4.576035 8.200992 2.722344
v -4.445125 8.010997 2.878352
v -0.905258 8.046144 0.831176
v -0.518642 9.586678 -1.476681
v -0.310857 8.976757 -1.163276
v -0.121465 8.534675 -2.337304
v -0.400723 9.438886 -2.810636
v -0.764112 10.290956 -1.854264
v -2.034892 12.376505 -3.609384
v -1.104120 11.012285 -2.339172
v -0.868789 10.495273 -3.499025
v -1.671884 11.612788 -4.560547
v -1.631932 9.774070 -1.781114
v -1.908737 9.663767 -1.805941
v -1.499628 8.510824 -1.233181
v -1.255373 8.619780 -1.211541
v -2.792067 11.778469 -3.498036
v -3.040915 11.609762 -3.458502
v -2.315122 10.519370 -2.373499
v -1.987499 10.602725 -2.349964
v 0.570596 9.584526 1.197187
v 0.407823 9.143036 0.612022
v -0.386521 8.447371 1.351149
v -0.239456 8.835430 1.864065
v -0.069904 9.182988 2.434876
v 0.715299 9.914846 1.729008
v 0.148591 9.632350 3.414947
v 0.992128 10.404307 2.775861
v 1.506844 10.852331 4.865035
v 0.600637 9.978977 5.102367
v 1.355287 9.205183 1.662021
v 1.590062 9.040737 1.739557
v 1.358641 8.453430 0.944859
v 1.136280 8.612214 0.864411
v 2.148302 10.173800 4.733562
v 2.353363 9.981400 4.693817
v 1.898458 9.637904 3.007184
v 1.667711 9.806103 2.915801
v 1.089879 9.317324 -0.217118
v 0.743874 8.628768 -0.316777
v 1.626599 8.202584 0.532213
v 1.842214 8.810570 0.627216
v 2.221086 9.391756 0.702810
v 1.424452 9.877423 -0.126383
v 2.896689 10.218531 0.829714
v 2.176190 10.822501 0.024922
v 3.958711 12.154871 0.252190
v 4.340376 11.232758 0.981045
v 1.832970 9.420505 -0.922400
v 1.968660 9.394954 -1.136913
v 1.541474 8.508265 -1.265534
v 1.405100 8.527607 -1.052589
v 4.226777 11.661764 -0.565196
v 4.277018 11.517632 -0.807367
v 2.882407 10.484960 -0.978696
v 2.648615 10.551821 -0.734728
v 0.908729 9.531619 -1.644642
v 0.626741 9.057444 -1.140272
v 1.640332 8.428064 -1.227022
v 1.910428 8.803216 -1.666376
v 1.206919 9.936514 -2.212934
v 2.211521 9.196432 -2.235095
v 2.712221 10.558500 -5.019252
v 1.680091 10.324984 -3.060712
v 2.608024 9.530180 -2.990248
v 3.376611 9.702860 -4.503685
v 0.566778 9.138376 -2.539437
v 0.407182 8.997844 -2.749731
v 0.083896 8.398050 -2.094948
v 0.192339 8.572824 -1.863927
v 2.022878 9.883604 -5.286495
v 1.792718 9.670276 -5.362861
v 1.001725 9.503307 -3.843687
v 1.161888 9.698013 -3.631978
v 0.806273 9.449400 -2.989287
v 0.637164 9.300297 -3.196603
v 1.828107 8.042101 1.339876
v 1.353898 7.244884 1.487419
v 2.372635 6.783195 2.612943
v 2.945683 7.542198 2.522165
v 3.035691 7.496441 2.618910
v 3.049371 7.499390 2.605973
v 2.960137 7.541099 2.509940
v 2.436262 6.746426 2.717843
v 3.462222 5.959496 3.907408
v 4.108809 6.631507 3.929672
v 1.601948 8.119821 1.081421
v 1.850905 8.043859 1.314702
v 1.629452 8.122942 1.059840
v 1.357557 8.019378 0.486143
v 1.753068 7.939911 0.924324
v 1.822190 7.251714 0.862593
v 1.361836 7.357140 0.352640
v 1.233950 8.217459 0.620887
v 3.123718 7.282112 2.288326
v 3.158337 6.896060 2.095239
v 2.120599 7.385177 0.944268
v 2.037918 7.789462 1.105337
v 4.137528 6.160326 3.396273
v 3.133338 6.928061 2.250294
v 2.091052 7.295390 0.958834
v 3.131405 6.800171 2.114093
v 3.983029 6.091516 3.282035
v 3.135944 6.749629 2.261029
v 1.211831 8.214496 0.647121
v 0.761283 7.395350 0.845773
v -0.280194 9.858092 -0.701223
v -0.138014 9.009747 -0.641971
v -1.028639 8.759727 -1.571166
v -1.223842 9.833944 -1.643590
v -0.437989 10.557319 -0.748361
v -1.717052 11.252027 -1.730014
v -0.869532 11.763877 -0.809172
v -2.172613 13.571884 -0.875726
v -2.715811 12.657608 -1.811928
v -1.018192 10.067847 -0.032678
v -1.225570 10.026103 0.179014
v -1.050400 8.951968 0.252051
v -0.816565 8.950467 0.030618
v -2.603497 13.032353 -0.189363
v -2.729275 12.852624 0.020901
v -1.724554 11.441195 0.096656
v -1.519400 11.494658 -0.110171
v -1.060481 7.883138 0.897404
vt 0.729492 0.508789
vt 0.996094 0.529297
vt 0.996094 0.995117
vt 0.709961 0.993164
vt 0.003906 0.508789
vt 0.461914 0.508789
vt 0.423828 0.991211
vt 0.003906 0.995117
vt 0.670898 0.014648
vt 0.688477 0.124023
vt 0.385742 0.128906
vt 0.345703 0.014648
vt 0.004883 0.123047
vt 0.003906 0.014648
vt 0.992188 0.120117
vt 0.709961 0.508789
vt 0.423828 0.508789
vt 0.840820 0.508789
vt 0.736328 0.994141
vt 0.651367 0.508789
vt 0.652344 0.124023
vt 0.631836 0.013672
vt 0.996094 0.014648
vt 0.626953 0.508789
vt 0.829102 0.508789
vt 0.840820 0.995117
vt 0.678711 0.995117
vt 0.708008 0.508789
vt 0.741211 0.123047
vt 0.727539 0.013672
vt 0.687500 0.508789
vt 0.631836 0.993164
vt 0.563477 0.125977
vt 0.537109 0.013672
vt 0.793945 0.508789
vt 0.793945 0.003906
vt 0.432617 0.003906
vt 0.432617 0.508789
vt 0.401367 0.508789
vt 0.401367 0.003906
vt 0.003906 0.003906
vt 0.841797 0.508789
vt 0.842773 0.508789
vt 0.994141 0.698242
vt 0.840820 0.677734
vt 0.845703 0.935547
vt 0.995117 0.996094
vt 0.402344 0.303711
vt 0.381836 0.126953
vt 0.738281 0.126953
vt 0.760742 0.303711
vt 0.398438 0.508789
vt 0.003906 0.126953
vt 0.360352 0.126953
vt 0.696289 0.014648
vt 0.321289 0.014648
vt 0.422852 0.508789
vt 0.784180 0.508789
vt 0.996094 0.003906
vt 0.759766 0.995117
vn 0.199200 0.972300 -0.122200
vn 0.266100 0.949900 -0.163900
vn -0.126500 0.678600 -0.723500
vn -0.224700 0.698900 -0.679000
vn -0.147600 0.987400 0.056400
vn -0.002000 0.999800 -0.017600
vn -0.372900 0.711300 -0.595900
vn -0.431500 0.700200 -0.568800
vn 0.510600 0.387300 0.767700
vn 0.479800 0.486600 0.730100
vn 0.347500 0.605600 0.715900
vn 0.352700 0.585700 0.729800
vn 0.258600 0.658600 0.706700
vn 0.250400 0.711600 0.656500
vn 0.528300 0.494500 0.690200
vn 0.537100 0.519900 0.664300
vn 0.535900 0.523100 0.662700
vn 0.944600 0.326100 0.037300
vn 0.927800 0.372600 0.018400
vn 0.516600 0.585400 0.624800
vn 0.399400 0.765300 0.504800
vn 0.465400 0.676200 0.571100
vn 0.873100 0.485000 -0.050500
vn 0.848600 0.520500 -0.094100
vn -0.219200 0.423500 0.879000
vn -0.224900 0.439500 0.869600
vn -0.234800 0.366000 0.900500
vn -0.206600 0.382200 0.900700
vn -0.266000 0.577800 0.771600
vn -0.272400 0.581500 0.766600
vn -0.222600 0.557900 0.799500
vn -0.245600 0.523500 0.815900
vn -0.238800 0.830300 -0.503600
vn -0.109800 0.807900 -0.579000
vn -0.758100 0.605200 -0.242900
vn -0.750800 0.627100 -0.207500
vn -0.745200 0.645900 -0.165900
vn -0.268100 0.877500 -0.397700
vn -0.707800 0.704200 -0.056000
vn 0.151600 0.916800 -0.369400
vn -0.012500 0.979600 -0.200800
vn -0.688600 0.724200 0.035700
vn 0.616400 0.597400 -0.513000
vn 0.598300 0.608300 -0.521600
vn 0.594400 0.556500 -0.580500
vn 0.603400 0.550600 -0.576800
vn 0.637900 0.703900 -0.312500
vn 0.616700 0.722100 -0.313400
vn 0.626100 0.677900 -0.385300
vn 0.649700 0.663800 -0.370400
vn -0.879000 0.430100 0.205900
vn -0.895300 0.438200 0.080600
vn -0.662200 0.171500 0.729400
vn -0.658200 0.221500 0.719500
vn -0.600500 0.301300 0.740700
vn -0.801000 0.529500 0.279500
vn -0.499200 0.404000 0.766500
vn -0.714300 0.697500 -0.056100
vn -0.591600 0.792000 0.150900
vn -0.404700 0.458000 0.791400
vn -0.647700 0.496700 -0.577700
vn -0.692300 0.520500 -0.499900
vn -0.740200 0.430700 -0.516300
vn -0.683900 0.419500 -0.596900
vn -0.439800 0.702100 -0.560000
vn -0.465200 0.714900 -0.522000
vn -0.523300 0.634400 -0.569000
vn -0.499300 0.633200 -0.591400
vn -0.261900 0.805900 0.531000
vn -0.278800 0.772600 0.570400
vn 0.408300 0.547200 0.730600
vn 0.441000 0.583400 0.682000
vn -0.203200 0.879000 0.431300
vn 0.489100 0.635500 0.597300
vn -0.025100 0.994700 0.099800
vn -0.105200 0.962200 0.251300
vn 0.568500 0.690800 0.446800
vn 0.601800 0.699500 0.385400
vn -0.787600 0.613500 0.057500
vn -0.739600 0.662200 0.120700
vn -0.811300 0.578700 0.082500
vn -0.819300 0.571700 0.043200
vn -0.618700 0.748500 -0.238600
vn -0.616400 0.750400 -0.238500
vn -0.634900 0.743900 -0.208600
vn -0.648500 0.741000 -0.174300
vn -0.715400 0.698600 -0.007700
vn -0.678800 0.733400 -0.035700
vn -0.311800 0.764800 0.563800
vn -0.583600 0.470400 0.661900
vn -0.554100 0.495800 0.668700
vn -0.087700 0.878200 0.470200
vn -0.251600 0.765600 0.592100
vn 0.583800 0.811700 -0.019100
vn 0.405300 0.913900 0.024300
vn -0.547400 0.523600 0.652900
vn -0.495000 0.473400 0.728600
vn 0.251700 0.887500 0.386000
vn -0.216700 0.875900 0.431000
vn 0.263000 0.958000 0.114100
vn 0.206400 0.977200 0.050600
vn 0.731000 0.326100 -0.599500
vn 0.681800 0.522500 -0.512100
vn 0.748500 0.134600 -0.649400
vn 0.749200 0.135500 -0.648300
vn 0.460500 0.854800 -0.239500
vn 0.742100 0.473900 -0.474100
vn 0.715900 -0.104900 -0.690300
vn 0.762200 0.137300 -0.632600
vn 0.699300 0.599900 -0.388700
vn 0.810100 0.216600 -0.544900
vn 0.771800 0.043600 -0.634400
vn 0.632200 -0.319400 -0.705900
vn 0.633300 -0.316700 -0.706100
vn 0.708000 -0.135600 -0.693100
vn 0.760400 -0.027900 -0.648900
vn -0.311500 0.828100 0.466000
vn -0.585300 0.480300 0.653200
vn 0.982500 0.186400 0.000100
vn 0.986200 0.165700 0.005400
vn 0.707000 0.075100 -0.703200
vn 0.688800 0.125500 -0.714000
vn 0.939800 0.270300 -0.208900
vn 0.623000 0.287700 -0.727400
vn 0.878100 0.440000 0.188100
vn 0.814800 0.579500 -0.017200
vn 0.591000 0.378400 -0.712400
vn 0.670300 0.221000 0.708400
vn 0.675600 0.217000 0.704600
vn 0.684000 0.161800 0.711300
vn 0.684400 0.163900 0.710400
vn 0.567600 0.437800 0.697200
vn 0.558400 0.435400 0.706200
vn 0.613800 0.356000 0.704600
vn 0.605500 0.371200 0.703900
vn 0.519000 0.139500 0.843300
usemtl palm_leaf
s 1
f 1/1/1 2/2/2 3/3/3
f 3/3/3 4/4/4 1/1/1
f 5/5/5 6/6/6 7/7/7
f 7/7/7 8/8/8 5/5/5
f 9/9/9 10/10/10 11/11/11
f 11/11/11 12/12/12 9/9/9
f 13/13/13 14/14/14 12/12/12
f 12/12/12 11/11/11 13/13/13
f 15/15/15 2/2/2 1/16/1
f 1/16/1 10/10/10 15/15/15
f 11/11/11 6/17/6 5/5/5
f 5/5/5 13/13/13 11/11/11
f 16/18/16 17/2/17 18/3/18
f 18/3/18 19/19/19 16/18/16
f 16/18/16 19/19/19 20/20/20
f 21/5/21 22/6/22 23/7/23
f 23/7/23 24/8/24 21/5/21
f 25/21/25 26/22/26 27/23/27
f 27/23/27 28/15/28 25/21/25
f 29/13/29 30/14/30 31/12/31
f 31/12/31 32/11/32 29/13/29
f 25/21/25 20/24/20 22/17/22
f 22/17/22 32/11/32 25/21/25
f 32/11/32 22/17/22 21/5/21
f 21/5/21 29/13/29 32/11/32
f 28/15/28 17/2/17 16/25/16
f 16/25/16 25/21/25 28/15/28
f 33/18/33 34/2/34 35/3/35
f 35/3/35 36/26/36 33/18/33
f 33/18/33 36/26/36 37/27/37
f 37/27/37 38/28/38 33/18/33
f 38/28/38 37/27/37 39/7/39
f 39/7/39 40/6/40 38/28/38
f 41/5/41 40/6/40 39/7/39
f 39/7/39 42/8/42 41/5/41
f 43/29/43 44/30/44 45/23/45
f 45/23/45 46/15/46 43/29/43
f 47/13/47 48/14/48 49/12/49
f 49/12/49 50/11/50 47/13/47
f 43/29/43 38/31/38 40/17/40
f 40/17/40 50/11/50 43/29/43
f 50/11/50 40/17/40 41/5/41
f 41/5/41 47/13/47 50/11/50
f 43/29/43 50/11/50 49/12/49
f 49/12/49 44/30/44 43/29/43
f 38/31/38 43/29/43 33/25/33
f 46/15/46 34/2/34 33/25/33
f 33/25/33 43/29/43 46/15/46
f 51/18/51 52/2/52 53/3/53
f 53/3/53 54/26/54 51/18/51
f 51/18/51 54/26/54 55/27/55
f 55/27/55 56/28/56 51/18/51
f 56/28/56 55/27/55 57/7/57
f 57/7/57 58/6/58 56/28/56
f 59/5/59 58/6/58 57/7/57
f 57/7/57 60/8/60 59/5/59
f 61/29/61 62/30/62 63/23/63
f 63/23/63 64/15/64 61/29/61
f 65/13/65 66/14/66 67/12/67
f 67/12/67 68/11/68 65/13/65
f 61/29/61 56/31/56 58/17/58
f 58/17/58 68/11/68 61/29/61
f 68/11/68 58/17/58 59/5/59
f 59/5/59 65/13/65 68/11/68
f 61/29/61 68/11/68 67/12/67
f 67/12/67 62/30/62 61/29/61
f 56/31/56 61/29/61 51/25/51
f 64/15/64 52/2/52 51/25/51
f 51/25/51 61/29/61 64/15/64
f 69/18/69 70/2/70 71/3/71
f 71/3/71 72/26/72 69/18/69
f 73/20/73 69/18/69 72/26/72
f 72/26/72 74/32/74 73/20/73
f 75/5/75 76/6/76 77/7/77
f 77/7/77 78/8/78 75/5/75
f 79/29/79 80/30/80 81/23/81
f 81/23/81 82/15/82 79/29/79
f 83/13/83 84/14/84 85/12/85
f 85/12/85 86/11/86 83/13/83
f 87/33/87 73/24/73 76/17/76
f 76/17/76 86/11/86 87/33/87
f 86/11/86 76/17/76 75/5/75
f 75/5/75 83/13/83 86/11/86
f 80/30/80 79/29/79 87/33/87
f 87/33/87 88/34/88 80/30/80
f 82/15/82 70/2/70 69/25/69
f 69/25/69 79/29/79 82/15/82
f 89/35/89 90/36/90 91/37/91
f 91/37/91 92/38/92 89/35/89
f 93/39/93 94/39/94 95/38/95
f 95/38/95 92/38/92 93/39/93
f 93/39/93 96/40/96 97/41/97
f 97/41/97 98/5/98 93/39/93
f 93/39/93 92/38/92 91/37/91
f 91/37/91 96/40/96 93/39/93
f 89/35/89 99/42/99 90/36/90
f 99/42/99 89/35/89 100/35/100
f 100/35/100 101/43/101 99/42/99
f 92/38/92 95/38/95 100/35/100
f 100/35/100 89/35/89 92/38/92
f 93/39/93 98/5/98 94/39/94
f 102/44/102 103/45/103 104/46/104
f 104/46/104 105/47/105 102/44/102
f 103/45/103 102/44/102 106/2/106
f 106/2/106 101/43/101 103/45/103
f 107/48/107 108/49/108 109/50/109
f 109/50/109 110/51/110 107/48/107
f 94/52/94 98/5/98 111/53/111
f 111/53/111 112/54/112 94/52/94
f 113/55/113 109/50/109 108/49/108
f 108/49/108 114/12/114 113/55/113
f 112/54/112 111/53/111 115/14/115
f 115/14/115 116/56/116 112/54/112
f 95/57/95 107/48/107 110/51/110
f 110/51/110 100/58/100 95/57/95
f 117/2/117 99/42/99 101/43/101
f 101/43/101 106/2/106 117/2/117
f 90/36/90 99/42/99 117/2/117
f 117/2/117 118/59/118 90/36/90
f 119/18/119 120/2/120 121/3/121
f 121/3/121 122/60/122 119/18/119
f 119/18/119 122/60/122 123/28/123
f 123/28/123 122/60/122 124/7/124
f 124/7/124 125/6/125 123/28/123
f 126/5/126 125/6/125 124/7/124
f 124/7/124 127/8/127 126/5/126
f 128/29/128 129/30/129 130/23/130
f 130/23/130 131/15/131 128/29/128
f 132/13/132 133/14/133 134/12/134
f 134/12/134 135/11/135 132/13/132
f 128/29/128 123/31/123 125/17/125
f 125/17/125 135/11/135 128/29/128
f 135/11/135 125/17/125 126/5/126
f 126/5/126 132/13/132 135/11/135
f 128/29/128 135/11/135 134/12/134
f 134/12/134 129/30/129 128/29/128
f 123/31/123 128/29/128 119/25/119
f 131/15/131 120/2/120 119/25/119
f 119/25/119 128/29/128 131/15/131
f 76/6/76 73/20/73 74/32/74
f 74/32/74 77/7/77 76/6/76
f 73/24/73 87/33/87 79/29/79
f 79/29/79 69/25/69 73/24/73
f 88/34/88 87/33/87 86/11/86
f 86/11/86 85/12/85 88/34/88
f 6/6/6 1/1/1 4/4/4
f 4/4/4 7/7/7 6/6/6
f 10/10/10 9/9/9 136/23/136
f 136/23/136 15/15/15 10/10/10
f 10/10/10 1/16/1 6/17/6
f 6/17/6 11/11/11 10/10/10
f 22/6/22 20/20/20 19/19/19
f 19/19/19 23/7/23 22/6/22
f 25/21/25 16/25/16 20/24/20
f 26/22/26 25/21/25 32/11/32
f 32/11/32 31/12/31 26/22/26
