# Blender v2.74 (sub 0) OBJ File: ''
# www.blender.org
mtllib trop_0_bark.mtl
o polySurface328_polySurface200
v -0.685567 0.046297 -0.001683
v -0.499906 3.203077 -0.001680
v -0.404561 3.203075 -0.295105
v -0.554769 0.046297 -0.404238
v -0.154965 3.203073 -0.476450
v 0.210932 0.046297 -0.653029
v -0.212338 0.046295 -0.653029
v 0.553370 0.046299 -0.404236
v 0.153559 3.203075 -0.476450
v 0.684169 0.046299 -0.001681
v 0.403163 3.203075 -0.295103
v 0.498500 3.203077 -0.001680
v 0.403163 3.203075 0.291741
v 0.553363 0.046297 0.400873
v 0.153559 3.203073 0.473088
v -0.212338 0.046295 0.649666
v 0.210932 0.046295 0.649666
v -0.554769 0.046295 0.400873
v -0.154965 3.203075 0.473088
v -0.404569 3.203077 0.291743
v -0.090810 3.520569 0.275652
v -0.236623 3.520572 0.169722
v -0.292302 3.520574 -0.001680
v -0.236615 3.520569 -0.173082
v -0.090810 3.520567 -0.279014
v 0.089411 3.520569 -0.279014
v 0.235209 3.520569 -0.173082
v 0.290904 3.520569 -0.001680
v 0.235209 3.520569 0.169720
v 0.089411 3.520569 0.275652
v -0.000699 3.741312 -0.001682
vt 0.395982 0.692302
vt 0.395831 0.954181
vt 0.298336 0.954181
vt 0.298286 0.692302
vt 0.200872 0.954181
vt 0.103001 0.692302
vt 0.200622 0.692302
vt 0.005433 0.692302
vt 0.103451 0.954181
vt 0.884563 0.692302
vt 0.982224 0.692302
vt 0.980870 0.954181
vt 0.883410 0.954181
vt 0.785918 0.954181
vt 0.786870 0.692302
vt 0.688402 0.954181
vt 0.591427 0.692302
vt 0.689154 0.692302
vt 0.493700 0.692302
vt 0.590875 0.954181
vt 0.493348 0.954181
vt 0.590820 0.980547
vt 0.493313 0.980547
vt 0.395816 0.980547
vt 0.298341 0.980547
vt 0.200897 0.980547
vt 0.103496 0.980547
vt 0.006149 0.980547
vt 0.980734 0.980547
vt 0.883294 0.980547
vt 0.785822 0.980547
vt 0.688326 0.980547
vt 0.542035 0.998879
vt 0.444547 0.998879
vt 0.347075 0.998879
vt 0.249629 0.998879
vt 0.152221 0.998879
vt 0.054861 0.998879
vt 0.931926 0.998879
vt 0.834484 0.998879
vt 0.737014 0.998879
vt 0.639527 0.998879
vt 0.006084 0.954181
vn -0.998300 0.058700 -0.000000
vn -0.948900 0.315600 0.000000
vn -0.766400 0.315300 -0.559600
vn -0.807600 0.058700 -0.586800
vn -0.291200 0.315200 -0.903300
vn 0.308500 0.058700 -0.949400
vn -0.308500 0.058700 -0.949400
vn 0.807600 0.058700 -0.586800
vn 0.291100 0.315400 -0.903200
vn 0.998300 0.058700 0.000000
vn 0.766400 0.315400 -0.559600
vn 0.954500 0.297800 -0.016600
vn 0.766400 0.315400 0.559600
vn 0.807600 0.058700 0.586800
vn 0.291100 0.315300 0.903200
vn -0.308500 0.058700 0.949400
vn 0.308500 0.058700 0.949400
vn -0.807600 0.058700 0.586800
vn -0.291100 0.315300 0.903200
vn -0.766500 0.315200 0.559600
vn -0.225500 0.683600 0.694200
vn -0.603700 0.678800 0.418100
vn -0.749200 0.661900 0.023200
vn -0.584300 0.678700 -0.444900
vn -0.211100 0.678800 -0.703300
vn 0.209400 0.661900 -0.719700
vn 0.603700 0.678700 -0.418300
vn 0.734100 0.678800 0.016600
vn 0.619800 0.661900 0.421600
vn 0.211300 0.678700 0.703400
vn 0.000000 1.000000 -0.000000
usemtl None
s 1
f 1/1/1 2/2/2 3/3/3
f 4/4/4 3/3/3 5/5/5
f 6/6/6 7/7/7 5/5/5
f 8/8/8 6/6/6 9/9/9
f 10/10/10 8/11/8 11/12/11
f 10/10/10 12/13/12 13/14/13
f 14/15/14 13/14/13 15/16/15
f 16/17/16 17/18/17 15/16/15
f 18/19/18 16/17/16 19/20/19
f 1/1/1 18/19/18 20/21/20
f 19/20/19 21/22/21 22/23/22
f 2/2/2 20/21/20 22/23/22
f 2/2/2 23/24/23 24/25/24
f 3/3/3 24/25/24 25/26/25
f 9/9/9 5/5/5 25/26/25
f 9/9/9 26/27/26 27/28/27
f 11/12/11 27/29/27 28/30/28
f 13/14/13 12/13/12 28/30/28
f 13/14/13 29/31/29 30/32/30
f 15/16/15 30/32/30 21/22/21
f 22/23/22 21/22/21 31/33/31
f 23/24/23 22/23/22 31/34/31
f 24/25/24 23/24/23 31/35/31
f 25/26/25 24/25/24 31/36/31
f 26/27/26 25/26/25 31/37/31
f 27/28/27 26/27/26 31/38/31
f 28/30/28 27/29/27 31/39/31
f 29/31/29 28/30/28 31/40/31
f 30/32/30 29/31/29 31/41/31
f 21/22/21 30/32/30 31/42/31
f 4/4/4 1/1/1 3/3/3
f 7/7/7 4/4/4 5/5/5
f 9/9/9 6/6/6 5/5/5
f 11/43/11 8/8/8 9/9/9
f 12/13/12 10/10/10 11/12/11
f 14/15/14 10/10/10 13/14/13
f 17/18/17 14/15/14 15/16/15
f 19/20/19 16/17/16 15/16/15
f 20/21/20 18/19/18 19/20/19
f 2/2/2 1/1/1 20/21/20
f 20/21/20 19/20/19 22/23/22
f 23/24/23 2/2/2 22/23/22
f 3/3/3 2/2/2 24/25/24
f 5/5/5 3/3/3 25/26/25
f 26/27/26 9/9/9 25/26/25
f 11/43/11 9/9/9 27/28/27
f 12/13/12 11/12/11 28/30/28
f 29/31/29 13/14/13 28/30/28
f 15/16/15 13/14/13 30/32/30
f 19/20/19 15/16/15 21/22/21
