# Blender v2.74 (sub 0) OBJ File: ''
# www.blender.org
mtllib just_leaves.mtl
o palm_tree
v -2.039903 0.991658 0.590225
v -0.750343 0.514912 -0.079362
v -1.552565 -0.426238 -0.824938
v -2.671875 -0.039115 -0.263262
v -5.374891 0.735353 2.313504
v -3.191676 1.103167 1.186984
v -3.876146 0.076938 0.365740
v -5.618292 -0.261995 1.270304
v -1.767516 -0.063121 1.477669
v -1.816710 0.252850 1.379777
v -2.942484 0.361673 1.968109
v -2.893260 0.084488 2.130665
v -4.832730 0.013572 2.947179
v -4.682472 -0.204504 3.126245
v -0.619419 -0.164162 0.776500
v 1.541474 -0.144301 -1.265534
v 1.446604 -0.321656 -0.765319
v 1.837324 -0.247140 -0.132440
v 1.346205 0.836292 -0.006005
v 1.005615 0.814709 -0.544758
v 1.090917 -0.315408 -1.435588
v 0.653772 0.831830 -1.211565
v 0.035175 0.810733 -4.289609
v 0.650731 -0.121696 -2.364156
v 0.288858 0.999995 -2.034619
v -0.158692 1.710363 -3.519916
v 2.103539 0.039658 -1.479542
v 2.349000 0.117823 -1.631475
v 2.812438 0.226181 -0.815087
v 2.587425 0.086919 -0.654927
v 1.012457 1.025645 -4.318430
v 1.330025 1.084486 -4.319890
v 1.792058 0.355533 -2.831069
v 1.465412 0.158262 -3.305971
v 1.824135 0.053953 -2.006976
v 2.081453 0.132675 -2.153263
v -0.797584 -0.351259 0.852516
v 4.326434 0.852169 2.106905
v 3.934851 0.397206 1.458087
v 2.910217 -0.377078 1.983079
v 3.227937 -0.005764 2.548554
v 5.111132 0.558760 3.855528
v 4.628510 0.948213 2.701290
v 3.548411 0.093406 3.169785
v 3.932073 -0.263044 4.092672
v 5.063485 -0.332905 1.959077
v 5.007178 -0.003803 1.976476
v 5.307121 0.089188 2.557178
v 5.429555 -0.210806 2.534428
v 5.724069 -0.277818 3.557724
v 5.894492 -0.527981 3.475852
v 4.664585 -0.403519 1.371875
v 4.665884 -0.588214 1.474339
vt 0.729492 0.508789
vt 0.996094 0.529297
vt 0.996094 0.995117
vt 0.709961 0.993164
vt 0.003906 0.508789
vt 0.461914 0.508789
vt 0.423828 0.991211
vt 0.003906 0.995117
vt 0.670898 0.014648
vt 0.688477 0.124023
vt 0.385742 0.128906
vt 0.345703 0.014648
vt 0.004883 0.123047
vt 0.003906 0.014648
vt 0.992188 0.120117
vt 0.709961 0.508789
vt 0.423828 0.508789
vt 0.840820 0.508789
vt 0.840820 0.995117
vt 0.651367 0.508789
vt 0.631836 0.993164
vt 0.741211 0.123047
vt 0.727539 0.013672
vt 0.996094 0.014648
vt 0.563477 0.125977
vt 0.626953 0.508789
vt 0.537109 0.013672
vt 0.829102 0.508789
vn 0.199200 0.972300 -0.122200
vn 0.266100 0.949900 -0.163900
vn -0.126500 0.678600 -0.723500
vn -0.224700 0.698900 -0.679000
vn -0.147600 0.987400 0.056400
vn -0.002000 0.999800 -0.017600
vn -0.372900 0.711300 -0.595900
vn -0.431500 0.700200 -0.568800
vn 0.510600 0.387300 0.767700
vn 0.479800 0.486600 0.730100
vn 0.347500 0.605600 0.715900
vn 0.352700 0.585700 0.729800
vn 0.258600 0.658600 0.706700
vn 0.250400 0.711600 0.656500
vn 0.528300 0.494500 0.690200
vn -0.307300 -0.922300 0.234300
vn -0.283000 -0.916600 0.282600
vn -0.762900 -0.399500 0.508300
vn -0.800100 -0.396200 0.450500
vn -0.376100 -0.919300 0.116100
vn -0.851800 -0.386800 0.353300
vn -0.597800 -0.747300 -0.290200
vn -0.505600 -0.862800 0.000800
vn -0.918800 -0.344200 0.193000
vn -0.939600 -0.315600 0.132200
vn 0.317700 -0.936500 -0.148800
vn 0.240500 -0.964900 -0.105200
vn 0.351100 -0.929400 -0.113700
vn 0.368700 -0.917600 -0.148400
vn 0.212400 -0.760600 -0.613500
vn 0.158400 -0.866500 -0.473400
vn 0.820100 -0.298200 -0.488400
vn 0.451200 -0.733700 -0.508000
vn 0.238000 -0.956500 -0.168900
vn 0.285700 -0.935000 -0.209900
vn 0.519000 0.139500 0.843300
vn -0.019200 0.923800 -0.382500
vn -0.129200 0.846500 -0.516500
vn -0.642500 0.754000 -0.136600
vn -0.607500 0.794200 0.014600
vn 0.276600 0.936800 0.214100
vn 0.144800 0.989100 -0.026800
vn -0.498700 0.797300 0.340200
vn -0.436300 0.763400 0.476200
vn 0.768700 0.241500 -0.592200
vn 0.766100 0.330200 -0.551400
vn 0.819600 0.474400 -0.321300
vn 0.820600 0.458300 -0.341600
vn 0.836200 0.522300 -0.167300
vn 0.782500 0.594100 -0.186300
vn 0.788900 0.211100 -0.577100
vn 0.870500 0.036000 -0.490900
usemtl palm_leaf
s 1
f 1/1/1 2/2/2 3/3/3
f 3/3/3 4/4/4 1/1/1
f 5/5/5 6/6/6 7/7/7
f 7/7/7 8/8/8 5/5/5
f 9/9/9 10/10/10 11/11/11
f 11/11/11 12/12/12 9/9/9
f 13/13/13 14/14/14 12/12/12
f 12/12/12 11/11/11 13/13/13
f 15/15/15 2/2/2 1/16/1
f 1/16/1 10/10/10 15/15/15
f 11/11/11 6/17/6 5/5/5
f 5/5/5 13/13/13 11/11/11
f 17/18/16 18/2/17 19/3/18
f 19/3/18 20/19/19 17/18/16
f 21/20/20 17/18/16 20/19/19
f 20/19/19 22/21/21 21/20/20
f 23/5/22 24/6/23 25/7/24
f 25/7/24 26/8/25 23/5/22
f 27/22/26 28/23/27 29/24/28
f 29/24/28 30/15/29 27/22/26
f 31/13/30 32/14/31 33/12/32
f 33/12/32 34/11/33 31/13/30
f 35/25/34 21/26/20 24/17/23
f 24/17/23 34/11/33 35/25/34
f 34/11/33 24/17/23 23/5/22
f 23/5/22 31/13/30 34/11/33
f 28/23/27 27/22/26 35/25/34
f 35/25/34 36/27/35 28/23/27
f 30/15/29 18/2/17 17/28/16
f 17/28/16 27/22/26 30/15/29
f 24/6/23 21/20/20 22/21/21
f 22/21/21 25/7/24 24/6/23
f 21/26/20 35/25/34 27/22/26
f 27/22/26 17/28/16 21/26/20
f 36/27/35 35/25/34 34/11/33
f 34/11/33 33/12/32 36/27/35
f 6/6/6 1/1/1 4/4/4
f 4/4/4 7/7/7 6/6/6
f 10/10/10 9/9/9 37/24/36
f 37/24/36 15/15/15 10/10/10
f 10/10/10 1/16/1 6/17/6
f 6/17/6 11/11/11 10/10/10
f 38/1/37 39/2/38 40/3/39
f 40/3/39 41/4/40 38/1/37
f 42/5/41 43/6/42 44/7/43
f 44/7/43 45/8/44 42/5/41
f 46/9/45 47/10/46 48/11/47
f 48/11/47 49/12/48 46/9/45
f 50/13/49 51/14/50 49/12/48
f 49/12/48 48/11/47 50/13/49
f 52/15/51 39/2/38 38/16/37
f 38/16/37 47/10/46 52/15/51
f 48/11/47 43/17/42 42/5/41
f 42/5/41 50/13/49 48/11/47
f 43/6/42 38/1/37 41/4/40
f 41/4/40 44/7/43 43/6/42
f 47/10/46 46/9/45 53/24/52
f 53/24/52 52/15/51 47/10/46
f 47/10/46 38/16/37 43/17/42
f 43/17/42 48/11/47 47/10/46
