# Blender v2.74 (sub 0) OBJ File: ''
# www.blender.org
mtllib trop_4_bark.mtl
o polySurface229_polySurface36
v 0.309017 -1.000000 -0.951057
v 0.289442 2.708114 -0.890812
v 0.757770 2.708114 -0.550552
v -0.309017 -1.000000 -0.951056
v -0.289442 2.708114 -0.890812
v -0.809017 -1.000000 -0.587785
v -0.757770 2.708114 -0.550552
v -1.000000 -1.000000 -0.000000
v -0.936655 2.708114 0.000000
v -0.809017 -1.000000 0.587785
v -0.757770 2.708114 0.550552
v -0.309017 -1.000000 0.951057
v -0.289442 2.708114 0.890812
v 0.309017 -1.000000 0.951057
v 0.289442 2.708114 0.890812
v 0.809017 -1.000000 0.587785
v 0.757770 2.708114 0.550552
v 1.000000 -1.000000 -0.000000
v 0.936655 2.708114 0.000000
v 0.809017 -1.000000 -0.587785
v -0.670893 8.994369 -0.487428
v -0.256258 8.994369 -0.788677
v 0.256258 8.994369 -0.788677
v 0.670893 8.994369 -0.487428
v 0.829269 8.994369 0.000004
v 0.670893 8.994369 0.487436
v 0.256258 8.994369 0.788687
v -0.256258 8.994369 0.788687
v -0.670893 8.994369 0.487436
v -0.829269 8.994369 0.000004
v -0.723509 15.185464 0.000008
v -0.585331 15.185464 -0.425260
v -0.223576 15.185464 -0.688087
v 0.223576 15.185464 -0.688087
v 0.585331 15.185464 -0.425260
v 0.723509 15.185464 0.000008
v 0.585331 15.185464 0.425276
v 0.223576 15.185464 0.688109
v -0.223576 15.185464 0.688107
v -0.585331 15.185464 0.425276
v -0.617416 21.396006 0.000012
v -0.499500 21.396008 -0.362895
v -0.190792 21.396008 -0.587185
v 0.190792 21.396008 -0.587185
v 0.499500 21.396006 -0.362895
v 0.617416 21.396006 0.000012
v 0.499500 21.396008 0.362920
v 0.190792 21.396008 0.587209
v -0.190792 21.396008 0.587209
v -0.499500 21.396008 0.362920
v -0.543724 27.142664 0.000016
v -0.439882 27.142666 -0.319577
v -0.168020 27.142666 -0.517096
v 0.168020 27.142664 -0.517096
v 0.439882 27.142664 -0.319577
v 0.543724 27.142664 0.000016
v 0.439882 27.142664 0.319609
v 0.168020 27.142666 0.517128
v -0.168020 27.142666 0.517128
v -0.439882 27.142664 0.319609
v -0.499201 30.296091 0.000020
v -0.403862 30.296089 -0.293403
v -0.154262 30.296089 -0.474748
v 0.154262 30.296089 -0.474748
v 0.403862 30.296087 -0.293403
v 0.499201 30.296089 0.000020
v 0.403862 30.296089 0.293443
v 0.154262 30.296089 0.474788
v -0.154262 30.296089 0.474788
v -0.403862 30.296089 0.293443
v -0.090111 30.613583 0.277353
v -0.235913 30.613585 0.171421
v -0.291605 30.613583 0.000020
v -0.235913 30.613583 -0.171381
v -0.090111 30.613583 -0.277313
v 0.090111 30.613583 -0.277313
v 0.235913 30.613583 -0.171381
v 0.291605 30.613585 0.000020
v 0.235913 30.613583 0.171421
v 0.090111 30.613581 0.277353
v 0.000000 30.834324 0.000020
vt 0.098388 0.002482
vt 0.099028 0.258845
vt -0.000306 0.258845
vt 0.198061 0.002482
vt 0.198417 0.258845
vt 0.297778 0.002482
vt 0.297849 0.258845
vt 0.397529 0.002482
vt 0.397314 0.258845
vt 0.497300 0.002482
vt 0.496800 0.258845
vt 0.597083 0.002482
vt 0.596298 0.258845
vt 0.696864 0.002482
vt 0.695794 0.258845
vt 0.796635 0.002482
vt 0.795279 0.258845
vt 0.896382 0.002482
vt 0.894741 0.258845
vt 0.996095 0.002482
vt 0.994170 0.258845
vt 0.297968 0.692302
vt 0.199019 0.692302
vt 0.100114 0.692302
vt 0.001263 0.692302
vt 0.990905 0.692302
vt 0.891960 0.692302
vt 0.792981 0.692302
vt 0.693979 0.692302
vt 0.594967 0.692302
vt 0.495953 0.692302
vt 0.396950 0.692302
vt 0.396950 0.258845
vt 0.396591 0.692302
vt 0.298086 0.692302
vt 0.297968 0.258845
vt 0.199613 0.692302
vt 0.199019 0.258845
vt 0.101183 0.692302
vt 0.001263 0.258845
vt 0.100114 0.258845
vt 0.891960 0.258845
vt 0.990905 0.258845
vt 0.987690 0.692302
vt 0.889220 0.692302
vt 0.790718 0.692302
vt 0.693979 0.258845
vt 0.792981 0.258845
vt 0.692192 0.692302
vt 0.593656 0.692302
vt 0.594967 0.258845
vt 0.495118 0.692302
vt 0.495953 0.258845
vt 0.298086 0.258845
vt 0.396591 0.258845
vt 0.396232 0.692302
vt 0.298204 0.692302
vt 0.200208 0.692302
vt 0.199613 0.258845
vt 0.102256 0.692302
vt 0.101183 0.258845
vt 0.004357 0.692302
vt 0.987690 0.258845
vt 0.984464 0.692302
vt 0.886472 0.692302
vt 0.790718 0.258845
vt 0.889220 0.258845
vt 0.788447 0.692302
vt 0.690399 0.692302
vt 0.593656 0.258845
vt 0.692192 0.258845
vt 0.592341 0.692302
vt 0.494281 0.692302
vt 0.495118 0.258845
vt 0.298204 0.258845
vt 0.396232 0.258845
vt 0.395982 0.692302
vt 0.298286 0.692302
vt 0.200622 0.692302
vt 0.200208 0.258845
vt 0.103001 0.692302
vt 0.102256 0.258845
vt 0.005433 0.692302
vt 0.984464 0.258845
vt 0.982224 0.692302
vt 0.884563 0.692302
vt 0.788447 0.258845
vt 0.886472 0.258845
vt 0.690399 0.258845
vt 0.786870 0.692302
vt 0.592341 0.258845
vt 0.689154 0.692302
vt 0.591427 0.692302
vt 0.493700 0.692302
vt 0.494281 0.258845
vt 0.395831 0.954181
vt 0.298336 0.954181
vt 0.200872 0.954181
vt 0.103451 0.954181
vt 0.006084 0.954181
vt 0.980870 0.954181
vt 0.883410 0.954181
vt 0.785918 0.954181
vt 0.688402 0.954181
vt 0.590875 0.954181
vt 0.493348 0.954181
vt 0.590820 0.980547
vt 0.493313 0.980547
vt 0.395816 0.980547
vt 0.298341 0.980547
vt 0.200897 0.980547
vt 0.103496 0.980547
vt 0.980734 0.980547
vt 0.883294 0.980547
vt 0.785822 0.980547
vt 0.688326 0.980547
vt 0.542035 0.998879
vt 0.444547 0.998879
vt 0.347075 0.998879
vt 0.249629 0.998879
vt 0.152221 0.998879
vt 0.006149 0.980547
vt 0.054861 0.998879
vt 0.931926 0.998879
vt 0.834484 0.998879
vt 0.737014 0.998879
vt 0.639527 0.998879
vt -0.001231 0.002482
vt 0.002807 0.692302
vt 0.002807 0.258845
vt 0.004357 0.258845
vn 0.309000 0.017100 -0.950900
vn 0.808900 0.017100 -0.587700
vn -0.309000 0.017100 -0.950900
vn -0.808900 0.017100 -0.587700
vn -0.999900 0.017100 0.000000
vn -0.808900 0.017100 0.587700
vn -0.309000 0.017100 0.950900
vn 0.309000 0.017100 0.950900
vn 0.808900 0.017100 0.587700
vn 0.999900 0.017100 0.000000
vn -0.999900 0.015000 -0.000000
vn -0.808900 0.015000 -0.587700
vn -0.309000 0.015000 -0.951000
vn 0.309000 0.015000 -0.950900
vn 0.808900 0.015000 -0.587700
vn 0.999900 0.015000 -0.000000
vn 0.808900 0.015000 0.587700
vn 0.309000 0.015000 0.951000
vn -0.309000 0.015000 0.951000
vn -0.808900 0.015000 0.587700
vn -0.999900 0.013500 -0.000000
vn -0.808900 0.013500 -0.587700
vn -0.309000 0.013500 -0.951000
vn 0.309000 0.013500 -0.951000
vn 0.808900 0.013500 -0.587700
vn 0.999900 0.013500 -0.000000
vn 0.808900 0.013500 0.587700
vn 0.309000 0.013500 0.951000
vn -0.309000 0.013500 0.951000
vn -0.808900 0.013500 0.587700
vn -0.955700 0.294400 -0.000000
vn -0.772100 0.294300 -0.563200
vn -0.293600 0.294300 -0.909500
vn 0.297100 0.294200 -0.908400
vn 0.774300 0.294300 -0.560300
vn 0.960900 0.276500 -0.017200
vn 0.772100 0.294300 0.563200
vn 0.313000 0.276500 0.908600
vn -0.297100 0.294300 0.908400
vn -0.774200 0.294400 0.560300
vn -0.247500 0.674900 0.695200
vn -0.592500 0.661900 0.459200
vn -0.734200 0.678700 -0.016400
vn -0.584300 0.678700 -0.444900
vn -0.211200 0.678700 -0.703400
vn 0.242600 0.678800 -0.693100
vn 0.584300 0.678700 -0.444900
vn 0.749200 0.661900 -0.023200
vn 0.584300 0.678700 0.444900
vn 0.211100 0.678800 0.703300
vn 0.000000 1.000000 0.000000
usemtl Material.001
s 1
f 1/1/1 2/2/1 3/3/2
f 4/4/3 5/5/3 2/2/1
f 4/4/3 6/6/4 7/7/4
f 8/8/5 9/9/5 7/7/4
f 10/10/6 11/11/6 9/9/5
f 12/12/7 13/13/7 11/11/6
f 14/14/8 15/15/8 13/13/7
f 16/16/9 17/17/9 15/15/8
f 16/16/9 18/18/10 19/19/10
f 20/20/2 3/21/2 19/19/10
f 5/5/3 7/7/4 21/22/4
f 5/5/3 22/23/3 23/24/1
f 2/2/1 23/24/1 24/25/2
f 3/21/2 24/26/2 25/27/10
f 19/19/10 25/27/10 26/28/9
f 17/17/9 26/28/9 27/29/8
f 15/15/8 27/29/8 28/30/7
f 13/13/7 28/30/7 29/31/6
f 11/11/6 29/31/6 30/32/5
f 9/9/5 30/32/5 21/22/4
f 30/33/5 31/34/5 32/35/4
f 21/36/4 32/35/4 33/37/3
f 22/38/3 33/37/3 34/39/1
f 24/40/2 23/41/1 34/39/1
f 25/42/10 24/43/2 35/44/2
f 25/42/10 36/45/10 37/46/9
f 27/47/8 26/48/9 37/46/9
f 27/47/8 38/49/8 39/50/7
f 28/51/7 39/50/7 40/52/6
f 30/33/5 29/53/6 40/52/6
f 32/54/4 31/55/5 41/56/11
f 32/54/4 42/57/12 43/58/13
f 33/59/3 43/58/13 44/60/14
f 34/61/1 44/60/14 45/62/15
f 35/63/2 45/64/15 46/65/16
f 37/66/9 36/67/10 46/65/16
f 37/66/9 47/68/17 48/69/18
f 39/70/7 38/71/8 48/69/18
f 39/70/7 49/72/19 50/73/20
f 40/74/6 50/73/20 41/56/11
f 42/75/12 41/76/11 51/77/21
f 42/75/12 52/78/22 53/79/23
f 43/80/13 53/79/23 54/81/24
f 44/82/14 54/81/24 55/83/25
f 45/84/15 55/85/25 56/86/26
f 47/87/17 46/88/16 56/86/26
f 48/89/18 47/87/17 57/90/27
f 49/91/19 48/89/18 58/92/28
f 49/91/19 59/93/29 60/94/30
f 50/95/20 60/94/30 51/77/21
f 51/77/21 61/96/31 62/97/32
f 52/78/22 62/97/32 63/98/33
f 53/79/23 63/98/33 64/99/34
f 54/81/24 64/99/34 65/100/35
f 56/86/26 55/85/25 65/101/35
f 56/86/26 66/102/36 67/103/37
f 58/92/28 57/90/27 67/103/37
f 58/92/28 68/104/38 69/105/39
f 59/93/29 69/105/39 70/106/40
f 51/77/21 60/94/30 70/106/40
f 70/106/40 69/105/39 71/107/41
f 70/106/40 72/108/42 73/109/43
f 61/96/31 73/109/43 74/110/44
f 62/97/32 74/110/44 75/111/45
f 63/98/33 75/111/45 76/112/46
f 65/100/35 64/99/34 76/112/46
f 66/102/36 65/101/35 77/113/47
f 66/102/36 78/114/48 79/115/49
f 67/103/37 79/115/49 80/116/50
f 69/105/39 68/104/38 80/116/50
f 72/108/42 71/107/41 81/117/51
f 73/109/43 72/108/42 81/118/51
f 74/110/44 73/109/43 81/119/51
f 75/111/45 74/110/44 81/120/51
f 76/112/46 75/111/45 81/121/51
f 77/122/47 76/112/46 81/123/51
f 78/114/48 77/113/47 81/124/51
f 79/115/49 78/114/48 81/125/51
f 80/116/50 79/115/49 81/126/51
f 71/107/41 80/116/50 81/127/51
f 20/128/2 1/1/1 3/3/2
f 1/1/1 4/4/3 2/2/1
f 5/5/3 4/4/3 7/7/4
f 6/6/4 8/8/5 7/7/4
f 8/8/5 10/10/6 9/9/5
f 10/10/6 12/12/7 11/11/6
f 12/12/7 14/14/8 13/13/7
f 14/14/8 16/16/9 15/15/8
f 17/17/9 16/16/9 19/19/10
f 18/18/10 20/20/2 19/19/10
f 22/23/3 5/5/3 21/22/4
f 2/2/1 5/5/3 23/24/1
f 3/3/2 2/2/1 24/25/2
f 19/19/10 3/21/2 25/27/10
f 17/17/9 19/19/10 26/28/9
f 15/15/8 17/17/9 27/29/8
f 13/13/7 15/15/8 28/30/7
f 11/11/6 13/13/7 29/31/6
f 9/9/5 11/11/6 30/32/5
f 7/7/4 9/9/5 21/22/4
f 21/36/4 30/33/5 32/35/4
f 22/38/3 21/36/4 33/37/3
f 23/41/1 22/38/3 34/39/1
f 35/129/2 24/40/2 34/39/1
f 36/45/10 25/42/10 35/44/2
f 26/48/9 25/42/10 37/46/9
f 38/49/8 27/47/8 37/46/9
f 28/51/7 27/47/8 39/50/7
f 29/53/6 28/51/7 40/52/6
f 31/34/5 30/33/5 40/52/6
f 42/57/12 32/54/4 41/56/11
f 33/59/3 32/54/4 43/58/13
f 34/61/1 33/59/3 44/60/14
f 35/130/2 34/61/1 45/62/15
f 36/67/10 35/63/2 46/65/16
f 47/68/17 37/66/9 46/65/16
f 38/71/8 37/66/9 48/69/18
f 49/72/19 39/70/7 48/69/18
f 40/74/6 39/70/7 50/73/20
f 31/55/5 40/74/6 41/56/11
f 52/78/22 42/75/12 51/77/21
f 43/80/13 42/75/12 53/79/23
f 44/82/14 43/80/13 54/81/24
f 45/131/15 44/82/14 55/83/25
f 46/88/16 45/84/15 56/86/26
f 57/90/27 47/87/17 56/86/26
f 58/92/28 48/89/18 57/90/27
f 59/93/29 49/91/19 58/92/28
f 50/95/20 49/91/19 60/94/30
f 41/76/11 50/95/20 51/77/21
f 52/78/22 51/77/21 62/97/32
f 53/79/23 52/78/22 63/98/33
f 54/81/24 53/79/23 64/99/34
f 55/83/25 54/81/24 65/100/35
f 66/102/36 56/86/26 65/101/35
f 57/90/27 56/86/26 67/103/37
f 68/104/38 58/92/28 67/103/37
f 59/93/29 58/92/28 69/105/39
f 60/94/30 59/93/29 70/106/40
f 61/96/31 51/77/21 70/106/40
f 72/108/42 70/106/40 71/107/41
f 61/96/31 70/106/40 73/109/43
f 62/97/32 61/96/31 74/110/44
f 63/98/33 62/97/32 75/111/45
f 64/99/34 63/98/33 76/112/46
f 77/122/47 65/100/35 76/112/46
f 78/114/48 66/102/36 77/113/47
f 67/103/37 66/102/36 79/115/49
f 68/104/38 67/103/37 80/116/50
f 71/107/41 69/105/39 80/116/50
