# Blender v2.74 (sub 0) OBJ File: ''
# www.blender.org
mtllib sky.mtl
o Sphere
v 14.531244 42.053844 0.486778
v 14.071914 42.053844 3.975746
v 25.818336 35.857613 7.123190
v 26.692036 35.857613 0.486777
v 35.140347 26.206751 9.621014
v 36.342892 26.206753 0.486775
v 41.125446 14.045970 11.224713
v 42.539120 14.045972 0.486773
v 43.187771 0.565636 11.777310
v 44.674198 0.565638 0.486771
v 12.725224 42.053844 7.226948
v 23.256775 35.857609 13.307343
v 31.614664 26.206749 18.132769
v 36.980755 14.045968 21.230881
v 38.829784 0.565634 22.298418
v 10.582945 42.053844 10.018818
v 19.181921 35.857609 18.617796
v 26.006109 26.206749 25.441977
v 30.387505 14.045967 29.823368
v 31.897230 0.565633 31.333097
v 7.791075 42.053841 12.161095
v 13.871469 35.857609 22.692648
v 18.696899 26.206747 31.050533
v 21.795015 14.045966 36.416622
v 22.862549 0.565632 38.265648
v 4.539874 42.053841 13.507787
v 7.687315 35.857609 25.254208
v 10.185143 26.206747 34.576218
v 11.788848 14.045965 40.561310
v 12.341442 0.565631 42.623631
v 1.050905 42.053841 13.967119
v 1.050902 35.857609 26.127905
v 1.050904 26.206747 35.778759
v 1.050909 14.045965 41.974983
v 1.050905 0.565631 44.110062
v -2.438064 42.053841 13.507787
v -5.585511 35.857609 25.254202
v -8.083334 26.206747 34.576214
v -9.687031 14.045965 40.561306
v -10.239633 0.565631 42.623634
v -5.689265 42.053841 12.161095
v -11.769661 35.857609 22.692640
v -16.595089 26.206747 31.050528
v -19.693195 14.045966 36.416615
v -20.760736 0.565632 38.265648
v -8.481135 42.053844 10.018818
v -17.080111 35.857609 18.617788
v -23.904297 26.206749 25.441973
v -28.285683 14.045967 29.823364
v -29.795416 0.565633 31.333092
v -10.623412 42.053844 7.226949
v -21.154961 35.857609 13.307338
v -29.512848 26.206749 18.132765
v -34.878933 14.045968 21.230877
v -36.727966 0.565634 22.298412
v -11.970104 42.053844 3.975747
v -23.716520 35.857613 7.123187
v -33.038532 26.206751 9.621011
v -39.023621 14.045970 11.224712
v -41.085953 0.565636 11.777308
v -12.429435 42.053844 0.486778
v -24.590219 35.857613 0.486776
v -34.241074 26.206753 0.486774
v -40.437298 14.045972 0.486775
v -42.572376 0.565638 0.486772
v -11.970102 42.053844 -3.002191
v -23.716520 35.857613 -6.149635
v -33.038528 26.206755 -8.647463
v -39.023621 14.045974 -10.251161
v -41.085949 0.565640 -10.803763
v -10.623411 42.053844 -6.253391
v -21.154959 35.857616 -12.333785
v -29.512844 26.206755 -17.159216
v -34.878929 14.045975 -20.257324
v -36.727966 0.565641 -21.324867
v -8.481134 42.053844 -9.045260
v -17.080105 35.857616 -17.644236
v -23.904293 26.206757 -24.468424
v -28.285683 14.045977 -28.849813
v -29.795414 0.565643 -30.359545
v -5.689265 42.053844 -11.187536
v -11.769654 35.857616 -21.719088
v -16.595081 26.206758 -30.076979
v -19.693195 14.045978 -35.443058
v -20.760736 0.565644 -37.292095
v -2.438064 42.053848 -12.534227
v -5.585504 35.857616 -24.280647
v -8.083328 26.206758 -33.602661
v -9.687033 14.045979 -39.587746
v -10.239633 0.565645 -41.650082
v 1.050903 42.053848 -12.993558
v 1.050907 35.857616 -25.154346
v 1.050909 26.206758 -34.805206
v 1.050904 14.045979 -41.001423
v 1.050904 0.565645 -43.136505
v 4.539871 42.053848 -12.534227
v 7.687318 35.857616 -24.280647
v 10.185145 26.206758 -33.602661
v 11.788839 14.045979 -39.587746
v 12.341438 0.565645 -41.650078
v 7.791071 42.053844 -11.187535
v 13.871469 35.857616 -21.719088
v 18.696899 26.206758 -30.076975
v 21.795002 14.045978 -35.443058
v 22.862543 0.565644 -37.292095
v 10.582939 42.053844 -9.045259
v 19.181919 35.857616 -17.644236
v 26.006109 26.206757 -24.468420
v 30.387489 14.045977 -28.849813
v 31.897219 0.565643 -30.359543
v 12.725215 42.053844 -6.253389
v 23.256769 35.857616 -12.333784
v 31.614660 26.206755 -17.159212
v 36.980736 14.045975 -20.257326
v 38.829769 0.565641 -21.324865
v 14.071907 42.053844 -3.002190
v 25.818329 35.857613 -6.149633
v 35.140343 26.206755 -8.647456
v 41.125423 14.045974 -10.251163
v 43.187752 0.565640 -10.803761
v 1.050904 44.188915 0.486778
vt 0.342319 0.476988
vt 0.341741 0.518582
vt 0.422069 0.508731
vt 0.253658 0.465533
vt 0.253137 0.530464
vt 0.148720 0.452758
vt 0.148469 0.545286
vt 0.014391 0.436052
vt 0.014396 0.563919
vt 0.351948 0.558908
vt 0.426990 0.528603
vt 0.269439 0.593318
vt 0.172175 0.634725
vt 0.047497 0.687424
vt 0.372245 0.595219
vt 0.436886 0.546524
vt 0.301454 0.649811
vt 0.218222 0.714980
vt 0.111433 0.798151
vt 0.401248 0.625039
vt 0.451083 0.561273
vt 0.346999 0.696092
vt 0.283470 0.780582
vt 0.201847 0.888556
vt 0.436981 0.646336
vt 0.468614 0.571845
vt 0.402970 0.729009
vt 0.363473 0.827061
vt 0.312575 0.952480
vt 0.477008 0.657660
vt 0.488283 0.577519
vt 0.465553 0.746318
vt 0.452779 0.851252
vt 0.436075 0.985570
vt 0.518602 0.658238
vt 0.508751 0.577910
vt 0.530484 0.746840
vt 0.545303 0.851505
vt 0.563930 0.985570
vt 0.558929 0.648031
vt 0.528623 0.572989
vt 0.593337 0.730539
vt 0.634740 0.827803
vt 0.687431 0.952480
vt 0.595239 0.627735
vt 0.546544 0.563094
vt 0.649831 0.698526
vt 0.714997 0.781761
vt 0.798161 0.888554
vt 0.625060 0.598732
vt 0.561294 0.548897
vt 0.696114 0.652982
vt 0.780603 0.716515
vt 0.888575 0.798147
vt 0.646358 0.562999
vt 0.571866 0.531366
vt 0.729032 0.597011
vt 0.827087 0.636511
vt 0.952511 0.687417
vt 0.657681 0.522972
vt 0.746342 0.534427
vt 0.851280 0.547202
vt 0.985609 0.563907
vt 0.658259 0.481378
vt 0.577931 0.491229
vt 0.746863 0.469495
vt 0.851531 0.454674
vt 0.985603 0.436040
vt 0.648052 0.441051
vt 0.573010 0.471357
vt 0.730561 0.406641
vt 0.827825 0.365235
vt 0.952503 0.312536
vt 0.627755 0.404741
vt 0.563114 0.453436
vt 0.698546 0.350149
vt 0.781778 0.284980
vt 0.888567 0.201809
vt 0.598752 0.374921
vt 0.653001 0.303867
vt 0.716530 0.219378
vt 0.798153 0.111404
vt 0.563019 0.353624
vt 0.531386 0.428115
vt 0.597030 0.270951
vt 0.636527 0.172898
vt 0.687425 0.047480
vt 0.522992 0.342300
vt 0.511717 0.422440
vt 0.534447 0.253642
vt 0.547221 0.148708
vt 0.563925 0.014390
vt 0.481398 0.341722
vt 0.491249 0.422050
vt 0.469516 0.253120
vt 0.454697 0.148455
vt 0.436070 0.014390
vt 0.441072 0.351929
vt 0.471377 0.426970
vt 0.406663 0.269420
vt 0.365260 0.172157
vt 0.312570 0.047480
vt 0.404761 0.372225
vt 0.453456 0.436866
vt 0.350170 0.301433
vt 0.285004 0.218199
vt 0.201840 0.111405
vt 0.374940 0.401228
vt 0.438707 0.451063
vt 0.303887 0.346977
vt 0.219398 0.283445
vt 0.111425 0.201812
vt 0.353642 0.436960
vt 0.428134 0.468594
vt 0.270968 0.402948
vt 0.172913 0.363448
vt 0.047489 0.312543
vt 0.500000 0.499980
vt 0.422460 0.488263
vt 0.577540 0.511696
vt 0.548917 0.438687
vn -0.453200 -0.889400 -0.059700
vn -0.704100 -0.704100 -0.092700
vn -0.884900 -0.450900 -0.116500
vn -0.979400 -0.155100 -0.128900
vn -0.422300 -0.889400 -0.174900
vn -0.656100 -0.704100 -0.271800
vn -0.824600 -0.450900 -0.341600
vn -0.912700 -0.155100 -0.378100
vn -0.362600 -0.889400 -0.278300
vn -0.563400 -0.704100 -0.432300
vn -0.708100 -0.450900 -0.543400
vn -0.783700 -0.155100 -0.601400
vn -0.278300 -0.889400 -0.362600
vn -0.432300 -0.704100 -0.563400
vn -0.543400 -0.450900 -0.708100
vn -0.601400 -0.155100 -0.783700
vn -0.174900 -0.889400 -0.422300
vn -0.271800 -0.704100 -0.656100
vn -0.341600 -0.450900 -0.824600
vn -0.378100 -0.155100 -0.912700
vn -0.059700 -0.889400 -0.453200
vn -0.092700 -0.704100 -0.704100
vn -0.116500 -0.450900 -0.884900
vn -0.128900 -0.155100 -0.979400
vn 0.059700 -0.889400 -0.453200
vn 0.092700 -0.704100 -0.704100
vn 0.116500 -0.450900 -0.884900
vn 0.128900 -0.155100 -0.979400
vn 0.174900 -0.889400 -0.422300
vn 0.271800 -0.704100 -0.656100
vn 0.341600 -0.450900 -0.824600
vn 0.378100 -0.155100 -0.912700
vn 0.278300 -0.889400 -0.362600
vn 0.432300 -0.704100 -0.563400
vn 0.543400 -0.450900 -0.708100
vn 0.601400 -0.155100 -0.783700
vn 0.362600 -0.889400 -0.278300
vn 0.563400 -0.704100 -0.432300
vn 0.708100 -0.450900 -0.543400
vn 0.783700 -0.155100 -0.601400
vn 0.422300 -0.889400 -0.174900
vn 0.656100 -0.704100 -0.271800
vn 0.824600 -0.450900 -0.341600
vn 0.912700 -0.155100 -0.378100
vn 0.453200 -0.889400 -0.059700
vn 0.704100 -0.704100 -0.092700
vn 0.884900 -0.450900 -0.116500
vn 0.979400 -0.155100 -0.128900
vn 0.453200 -0.889400 0.059700
vn 0.704100 -0.704100 0.092700
vn 0.884900 -0.450900 0.116500
vn 0.979400 -0.155100 0.128900
vn 0.422300 -0.889400 0.174900
vn 0.656100 -0.704100 0.271800
vn 0.824600 -0.450900 0.341600
vn 0.912700 -0.155100 0.378100
vn 0.362600 -0.889400 0.278300
vn 0.563400 -0.704100 0.432300
vn 0.708100 -0.450900 0.543400
vn 0.783700 -0.155100 0.601400
vn 0.278300 -0.889400 0.362600
vn 0.432300 -0.704100 0.563400
vn 0.543400 -0.450900 0.708100
vn 0.601400 -0.155100 0.783700
vn 0.174900 -0.889400 0.422300
vn 0.271800 -0.704100 0.656100
vn 0.341600 -0.450900 0.824600
vn 0.378100 -0.155100 0.912700
vn 0.059700 -0.889400 0.453200
vn 0.092700 -0.704100 0.704100
vn 0.116500 -0.450900 0.884900
vn 0.128900 -0.155100 0.979400
vn -0.059700 -0.889400 0.453200
vn -0.092700 -0.704100 0.704100
vn -0.116500 -0.450900 0.884900
vn -0.128900 -0.155100 0.979400
vn -0.174900 -0.889400 0.422300
vn -0.271800 -0.704100 0.656100
vn -0.341600 -0.450900 0.824600
vn -0.378100 -0.155100 0.912700
vn -0.278300 -0.889400 0.362600
vn -0.432300 -0.704100 0.563400
vn -0.543400 -0.450900 0.708100
vn -0.601400 -0.155100 0.783700
vn -0.362600 -0.889400 0.278300
vn -0.563400 -0.704100 0.432300
vn -0.708100 -0.450900 0.543400
vn -0.783700 -0.155100 0.601400
vn -0.422300 -0.889400 0.174900
vn -0.656100 -0.704100 0.271800
vn -0.824600 -0.450900 0.341600
vn -0.912700 -0.155100 0.378100
vn -0.156400 -0.987500 -0.020600
vn -0.145700 -0.987500 -0.060400
vn -0.125200 -0.987500 -0.096000
vn -0.096000 -0.987500 -0.125200
vn -0.060400 -0.987500 -0.145700
vn -0.020600 -0.987500 -0.156400
vn 0.020600 -0.987500 -0.156400
vn 0.060400 -0.987500 -0.145700
vn 0.096000 -0.987500 -0.125200
vn 0.125200 -0.987500 -0.096000
vn 0.145700 -0.987500 -0.060400
vn 0.156400 -0.987500 -0.020600
vn 0.156400 -0.987500 0.020600
vn 0.145700 -0.987500 0.060400
vn 0.125200 -0.987500 0.096000
vn 0.096000 -0.987500 0.125200
vn 0.060400 -0.987500 0.145700
vn 0.020600 -0.987500 0.156400
vn -0.020600 -0.987500 0.156400
vn -0.060400 -0.987500 0.145700
vn -0.096000 -0.987500 0.125200
vn -0.125200 -0.987500 0.096000
vn -0.145700 -0.987500 0.060400
vn -0.156400 -0.987500 0.020600
vn -0.453200 -0.889400 0.059700
vn -0.704100 -0.704100 0.092700
vn -0.884900 -0.450900 0.116500
vn -0.979400 -0.155100 0.128900
usemtl None
s 1
f 4/1/1 3/2/1 2/3/1
f 6/4/2 5/5/2 3/2/2
f 8/6/3 7/7/3 5/5/3
f 10/8/4 9/9/4 7/7/4
f 3/2/5 12/10/5 11/11/5
f 5/5/6 13/12/6 12/10/6
f 7/7/7 14/13/7 13/12/7
f 9/9/8 15/14/8 14/13/8
f 12/10/9 17/15/9 16/16/9
f 12/10/10 13/12/10 18/17/10
f 13/12/11 14/13/11 19/18/11
f 15/14/12 20/19/12 19/18/12
f 17/15/13 22/20/13 21/21/13
f 17/15/14 18/17/14 23/22/14
f 19/18/15 24/23/15 23/22/15
f 20/19/16 25/24/16 24/23/16
f 22/20/17 27/25/17 26/26/17
f 22/20/18 23/22/18 28/27/18
f 24/23/19 29/28/19 28/27/19
f 25/24/20 30/29/20 29/28/20
f 27/25/21 32/30/21 31/31/21
f 27/25/22 28/27/22 33/32/22
f 28/27/23 29/28/23 34/33/23
f 30/29/24 35/34/24 34/33/24
f 32/30/25 37/35/25 36/36/25
f 32/30/26 33/32/26 38/37/26
f 33/32/27 34/33/27 39/38/27
f 35/34/28 40/39/28 39/38/28
f 37/35/29 42/40/29 41/41/29
f 37/35/30 38/37/30 43/42/30
f 38/37/31 39/38/31 44/43/31
f 40/39/32 45/44/32 44/43/32
f 42/40/33 47/45/33 46/46/33
f 43/42/34 48/47/34 47/45/34
f 43/42/35 44/43/35 49/48/35
f 45/44/36 50/49/36 49/48/36
f 47/45/37 52/50/37 51/51/37
f 48/47/38 53/52/38 52/50/38
f 49/48/39 54/53/39 53/52/39
f 49/48/40 50/49/40 55/54/40
f 52/50/41 57/55/41 56/56/41
f 53/52/42 58/57/42 57/55/42
f 53/52/43 54/53/43 59/58/43
f 55/54/44 60/59/44 59/58/44
f 56/56/45 57/55/45 62/60/45
f 57/55/46 58/57/46 63/61/46
f 58/57/47 59/58/47 64/62/47
f 60/59/48 65/63/48 64/62/48
f 62/60/49 67/64/49 66/65/49
f 62/60/50 63/61/50 68/66/50
f 63/61/51 64/62/51 69/67/51
f 65/63/52 70/68/52 69/67/52
f 67/64/53 72/69/53 71/70/53
f 68/66/54 73/71/54 72/69/54
f 68/66/55 69/67/55 74/72/55
f 69/67/56 70/68/56 75/73/56
f 72/69/57 77/74/57 76/75/57
f 72/69/58 73/71/58 78/76/58
f 74/72/59 79/77/59 78/76/59
f 74/72/60 75/73/60 80/78/60
f 76/75/61 77/74/61 82/79/61
f 78/76/62 83/80/62 82/79/62
f 78/76/63 79/77/63 84/81/63
f 80/78/64 85/82/64 84/81/64
f 82/79/65 87/83/65 86/84/65
f 83/80/66 88/85/66 87/83/66
f 83/80/67 84/81/67 89/86/67
f 85/82/68 90/87/68 89/86/68
f 87/83/69 92/88/69 91/89/69
f 88/85/70 93/90/70 92/88/70
f 89/86/71 94/91/71 93/90/71
f 90/87/72 95/92/72 94/91/72
f 92/88/73 97/93/73 96/94/73
f 93/90/74 98/95/74 97/93/74
f 93/90/75 94/91/75 99/96/75
f 95/92/76 100/97/76 99/96/76
f 97/93/77 102/98/77 101/99/77
f 97/93/78 98/95/78 103/100/78
f 98/95/79 99/96/79 104/101/79
f 100/97/80 105/102/80 104/101/80
f 102/98/81 107/103/81 106/104/81
f 103/100/82 108/105/82 107/103/82
f 103/100/83 104/101/83 109/106/83
f 105/102/84 110/107/84 109/106/84
f 107/103/85 112/108/85 111/109/85
f 108/105/86 113/110/86 112/108/86
f 108/105/87 109/106/87 114/111/87
f 110/107/88 115/112/88 114/111/88
f 112/108/89 117/113/89 116/114/89
f 113/110/90 118/115/90 117/113/90
f 113/110/91 114/111/91 119/116/91
f 115/112/92 120/117/92 119/116/92
f 121/118/93 1/119/93 2/3/93
f 121/118/94 2/3/94 11/11/94
f 121/118/95 11/11/95 16/16/95
f 121/118/96 16/16/96 21/21/96
f 121/118/97 21/21/97 26/26/97
f 121/118/98 26/26/98 31/31/98
f 121/118/99 31/31/99 36/36/99
f 121/118/100 36/36/100 41/41/100
f 121/118/101 41/41/101 46/46/101
f 121/118/102 46/46/102 51/51/102
f 121/118/103 51/51/103 56/56/103
f 121/118/104 56/56/104 61/120/104
f 121/118/105 61/120/105 66/65/105
f 121/118/106 66/65/106 71/70/106
f 121/118/107 71/70/107 76/75/107
f 121/118/108 76/75/108 81/121/108
f 121/118/109 81/121/109 86/84/109
f 121/118/110 86/84/110 91/89/110
f 121/118/111 91/89/111 96/94/111
f 121/118/112 96/94/112 101/99/112
f 121/118/113 101/99/113 106/104/113
f 121/118/114 106/104/114 111/109/114
f 121/118/115 111/109/115 116/114/115
f 121/118/116 116/114/116 1/119/116
f 117/113/117 4/1/117 1/119/117
f 118/115/118 6/4/118 4/1/118
f 119/116/119 8/6/119 6/4/119
f 120/117/120 10/8/120 8/6/120
f 1/119/1 4/1/1 2/3/1
f 4/1/2 6/4/2 3/2/2
f 6/4/3 8/6/3 5/5/3
f 8/6/4 10/8/4 7/7/4
f 2/3/5 3/2/5 11/11/5
f 3/2/6 5/5/6 12/10/6
f 5/5/7 7/7/7 13/12/7
f 7/7/8 9/9/8 14/13/8
f 11/11/9 12/10/9 16/16/9
f 17/15/10 12/10/10 18/17/10
f 18/17/11 13/12/11 19/18/11
f 14/13/12 15/14/12 19/18/12
f 16/16/13 17/15/13 21/21/13
f 22/20/14 17/15/14 23/22/14
f 18/17/15 19/18/15 23/22/15
f 19/18/16 20/19/16 24/23/16
f 21/21/17 22/20/17 26/26/17
f 27/25/18 22/20/18 28/27/18
f 23/22/19 24/23/19 28/27/19
f 24/23/20 25/24/20 29/28/20
f 26/26/21 27/25/21 31/31/21
f 32/30/22 27/25/22 33/32/22
f 33/32/23 28/27/23 34/33/23
f 29/28/24 30/29/24 34/33/24
f 31/31/25 32/30/25 36/36/25
f 37/35/26 32/30/26 38/37/26
f 38/37/27 33/32/27 39/38/27
f 34/33/28 35/34/28 39/38/28
f 36/36/29 37/35/29 41/41/29
f 42/40/30 37/35/30 43/42/30
f 43/42/31 38/37/31 44/43/31
f 39/38/32 40/39/32 44/43/32
f 41/41/33 42/40/33 46/46/33
f 42/40/34 43/42/34 47/45/34
f 48/47/35 43/42/35 49/48/35
f 44/43/36 45/44/36 49/48/36
f 46/46/37 47/45/37 51/51/37
f 47/45/38 48/47/38 52/50/38
f 48/47/39 49/48/39 53/52/39
f 54/53/40 49/48/40 55/54/40
f 51/51/41 52/50/41 56/56/41
f 52/50/42 53/52/42 57/55/42
f 58/57/43 53/52/43 59/58/43
f 54/53/44 55/54/44 59/58/44
f 61/120/45 56/56/45 62/60/45
f 62/60/46 57/55/46 63/61/46
f 63/61/47 58/57/47 64/62/47
f 59/58/48 60/59/48 64/62/48
f 61/120/49 62/60/49 66/65/49
f 67/64/50 62/60/50 68/66/50
f 68/66/51 63/61/51 69/67/51
f 64/62/52 65/63/52 69/67/52
f 66/65/53 67/64/53 71/70/53
f 67/64/54 68/66/54 72/69/54
f 73/71/55 68/66/55 74/72/55
f 74/72/56 69/67/56 75/73/56
f 71/70/57 72/69/57 76/75/57
f 77/74/58 72/69/58 78/76/58
f 73/71/59 74/72/59 78/76/59
f 79/77/60 74/72/60 80/78/60
f 81/121/61 76/75/61 82/79/61
f 77/74/62 78/76/62 82/79/62
f 83/80/63 78/76/63 84/81/63
f 79/77/64 80/78/64 84/81/64
f 81/121/65 82/79/65 86/84/65
f 82/79/66 83/80/66 87/83/66
f 88/85/67 83/80/67 89/86/67
f 84/81/68 85/82/68 89/86/68
f 86/84/69 87/83/69 91/89/69
f 87/83/70 88/85/70 92/88/70
f 88/85/71 89/86/71 93/90/71
f 89/86/72 90/87/72 94/91/72
f 91/89/73 92/88/73 96/94/73
f 92/88/74 93/90/74 97/93/74
f 98/95/75 93/90/75 99/96/75
f 94/91/76 95/92/76 99/96/76
f 96/94/77 97/93/77 101/99/77
f 102/98/78 97/93/78 103/100/78
f 103/100/79 98/95/79 104/101/79
f 99/96/80 100/97/80 104/101/80
f 101/99/81 102/98/81 106/104/81
f 102/98/82 103/100/82 107/103/82
f 108/105/83 103/100/83 109/106/83
f 104/101/84 105/102/84 109/106/84
f 106/104/85 107/103/85 111/109/85
f 107/103/86 108/105/86 112/108/86
f 113/110/87 108/105/87 114/111/87
f 109/106/88 110/107/88 114/111/88
f 111/109/89 112/108/89 116/114/89
f 112/108/90 113/110/90 117/113/90
f 118/115/91 113/110/91 119/116/91
f 114/111/92 115/112/92 119/116/92
f 116/114/117 117/113/117 1/119/117
f 117/113/118 118/115/118 4/1/118
f 118/115/119 119/116/119 6/4/119
f 119/116/120 120/117/120 8/6/120
